<?xml version="1.0" standalone="no"?>
<!DOCTYPE svg PUBLIC "-//W3C//DTD SVG 20010904//EN"
 "http://www.w3.org/TR/2001/REC-SVG-20010904/DTD/svg10.dtd">
<svg version="1.0" xmlns="http://www.w3.org/2000/svg"
 width="1000.000000pt" height="1000.000000pt" viewBox="0 0 1000.000000 1000.000000"
 preserveAspectRatio="xMidYMid meet">

<g transform="translate(0.000000,1000.000000) scale(0.100000,-0.100000)"
fill="#000000" stroke="none">
<path d="M4919 8566 c-2 -3 -78 -9 -169 -15 -91 -6 -178 -14 -195 -20 -36 -11
-97 -22 -270 -51 -71 -12 -184 -39 -250 -60 -66 -21 -140 -44 -165 -51 -25 -7
-49 -15 -55 -18 -5 -3 -18 -7 -28 -8 -10 -2 -39 -14 -65 -28 -26 -14 -55 -25
-65 -25 -9 0 -25 -4 -35 -9 -50 -28 -189 -91 -200 -91 -13 0 -63 -29 -72 -41
-3 -4 -17 -10 -32 -14 -15 -4 -32 -13 -39 -21 -6 -8 -20 -14 -30 -14 -11 0
-19 -3 -19 -8 0 -7 -29 -21 -73 -36 -11 -3 -15 -11 -11 -18 5 -8 2 -9 -9 -5
-9 3 -22 0 -30 -7 -7 -7 -23 -17 -36 -21 -13 -4 -31 -14 -41 -23 -36 -32 -48
-41 -53 -36 -2 2 -10 -2 -17 -11 -7 -8 -17 -15 -22 -15 -6 0 -28 -14 -49 -31
-22 -17 -46 -29 -54 -26 -9 4 -12 1 -8 -9 3 -8 -1 -14 -11 -14 -9 0 -16 -4
-16 -8 0 -5 -12 -15 -27 -23 -16 -8 -39 -24 -53 -36 -14 -13 -30 -23 -37 -23
-7 0 -13 -4 -13 -8 0 -5 -23 -23 -50 -41 -28 -18 -48 -37 -45 -42 4 -5 0 -9
-8 -9 -8 0 -26 -11 -41 -25 -15 -14 -32 -25 -37 -25 -6 0 -8 -4 -4 -9 3 -5 -4
-12 -15 -16 -11 -3 -20 -10 -20 -15 0 -4 -11 -11 -25 -14 -14 -4 -25 -10 -25
-15 0 -17 -83 -106 -98 -106 -12 0 -82 -73 -82 -84 0 -6 -4 -11 -9 -11 -12 0
-111 -99 -111 -110 0 -4 -32 -41 -71 -81 -39 -41 -78 -89 -86 -107 -9 -19 -26
-38 -37 -42 -12 -5 -17 -9 -12 -9 5 -1 -1 -12 -14 -26 -13 -14 -21 -28 -18
-31 4 -3 -11 -22 -31 -42 -21 -20 -46 -55 -56 -77 -11 -22 -25 -44 -32 -48 -7
-4 -13 -15 -13 -22 0 -8 -4 -15 -10 -15 -5 0 -10 -9 -10 -20 0 -11 -7 -23 -15
-26 -8 -4 -15 -11 -15 -18 0 -6 -9 -22 -20 -36 -11 -14 -20 -34 -20 -44 0 -11
-3 -16 -7 -13 -3 4 -12 -4 -19 -18 -30 -58 -47 -91 -55 -105 -5 -8 -13 -25
-19 -37 -5 -13 -34 -74 -64 -135 -59 -125 -188 -498 -212 -617 -9 -42 -20 -94
-24 -116 -4 -22 -16 -76 -25 -120 -9 -44 -20 -127 -26 -185 -5 -58 -15 -154
-21 -215 -5 -60 -8 -180 -5 -265 6 -181 24 -447 31 -459 5 -8 25 -110 46 -236
26 -154 147 -535 217 -685 22 -47 50 -107 62 -135 38 -86 54 -115 139 -260
101 -171 91 -155 127 -207 264 -379 537 -666 870 -914 92 -69 334 -227 415
-271 150 -82 312 -164 370 -188 36 -14 74 -30 85 -35 64 -29 249 -99 300 -114
33 -10 71 -21 85 -26 14 -5 61 -18 105 -30 44 -12 89 -26 100 -31 17 -7 103
-24 305 -59 30 -5 93 -16 140 -24 151 -27 537 -40 769 -27 220 13 293 21 466
52 272 48 340 64 505 115 63 19 151 46 195 59 44 14 89 29 100 34 70 32 115
51 120 51 2 0 30 12 62 26 32 15 74 33 93 41 226 96 590 327 840 533 345 283
681 679 870 1025 18 33 46 81 62 106 15 25 47 88 69 140 22 52 52 118 65 147
47 102 72 168 104 272 18 58 43 137 56 177 23 72 41 154 88 403 29 156 50 420
48 600 -2 185 -28 468 -56 605 -13 66 -30 152 -36 190 -7 39 -27 115 -45 170
-18 55 -47 145 -64 200 -18 55 -44 124 -57 153 -13 29 -24 55 -24 58 0 3 -10
26 -21 52 -72 158 -114 241 -178 351 -39 68 -71 125 -71 128 0 5 -60 94 -70
103 -3 3 -22 30 -43 60 -247 363 -616 724 -1007 983 -63 42 -120 81 -127 87
-7 5 -14 10 -16 10 -2 0 -53 27 -113 61 -184 103 -232 127 -397 195 -34 14
-85 36 -113 50 -28 13 -56 24 -63 24 -6 0 -19 4 -29 9 -9 5 -51 18 -92 30 -41
12 -84 26 -95 31 -11 4 -56 18 -100 30 -44 12 -89 25 -100 30 -11 5 -45 12
-75 15 -30 4 -68 10 -85 15 -16 5 -61 14 -100 21 -38 6 -104 18 -145 26 -72
13 -128 20 -376 43 -109 10 -446 14 -455 6z m-312 -689 c43 1 72 -1 66 -4 -7
-2 -13 -15 -13 -28 0 -27 31 -38 79 -29 25 5 36 1 61 -25 32 -32 54 -39 65
-21 8 13 35 13 35 1 0 -5 -9 -13 -20 -16 -11 -3 -20 -12 -20 -19 0 -8 -17 -16
-40 -19 -22 -3 -46 -12 -55 -20 -8 -9 -25 -19 -36 -22 -15 -5 -18 -10 -10 -18
15 -15 14 -27 -4 -27 -28 0 -19 -64 14 -93 28 -24 29 -30 24 -79 l-5 -53 46
-32 c48 -34 56 -56 31 -89 -19 -25 -19 -34 1 -34 13 0 15 -7 10 -31 -3 -17 -6
-44 -6 -59 0 -33 -42 -55 -90 -48 -18 3 -35 -1 -41 -9 -6 -7 -20 -13 -31 -13
-11 0 -16 -5 -13 -10 4 -6 1 -17 -5 -25 -6 -8 -8 -20 -4 -26 5 -9 -2 -10 -27
-5 -38 9 -41 9 -87 0 -18 -3 -37 -15 -43 -26 -13 -24 -2 -58 19 -59 9 -1 1 -4
-18 -8 -26 -4 -36 -12 -38 -28 -2 -15 -10 -23 -23 -23 -11 0 -33 -16 -50 -35
-26 -30 -37 -35 -74 -35 -26 0 -47 -6 -55 -15 -7 -8 -19 -15 -27 -15 -10 0
-11 -5 -4 -19 14 -26 5 -31 -48 -24 -42 5 -48 3 -60 -20 -7 -14 -25 -28 -40
-32 -14 -4 -29 -12 -33 -18 -5 -8 -42 -12 -113 -11 -99 1 -105 0 -105 -19 0
-16 -2 -17 -15 -7 -9 8 -13 21 -10 32 6 16 4 17 -22 6 -15 -6 -35 -19 -43 -28
-9 -10 -29 -20 -45 -22 -17 -3 -44 -10 -62 -16 l-31 -10 5 34 c6 35 6 35 -21
23 -21 -10 -34 -10 -60 -1 -18 7 -41 12 -51 12 -26 0 -55 -29 -55 -55 0 -31
-37 -75 -64 -75 -31 0 -59 37 -53 70 7 35 -8 50 -51 50 -39 0 -72 15 -72 34 0
22 -39 49 -70 49 -21 0 -41 -10 -63 -31 -22 -21 -43 -32 -62 -32 -17 0 -39 -7
-49 -15 -11 -8 -37 -15 -57 -15 -47 0 -141 19 -153 31 -6 5 -17 9 -26 9 -24 0
-55 36 -40 45 11 7 9 31 -6 68 -4 11 5 17 33 22 21 5 42 7 47 6 18 -4 96 40
96 54 0 8 -6 15 -14 15 -21 0 -38 57 -25 81 5 11 7 28 4 39 -4 13 1 25 14 37
12 10 21 25 21 35 0 10 13 24 29 33 16 8 38 25 48 38 24 30 55 47 88 47 37 0
63 16 122 76 l52 53 71 -1 c38 0 70 -5 70 -10 0 -5 9 -4 21 2 26 15 22 51 -9
66 -35 17 -37 22 -17 44 16 17 16 24 6 44 -11 20 -10 26 11 49 13 14 42 30 65
36 23 7 46 17 50 24 9 13 114 87 125 87 4 0 8 -10 10 -22 2 -19 10 -24 43 -26
55 -5 115 16 115 39 0 10 14 26 31 34 17 9 50 31 74 49 43 33 43 33 166 35 67
0 132 4 143 7 12 4 37 24 56 45 38 41 50 45 152 54 58 5 70 3 84 -13 19 -23
55 -18 74 9 11 14 16 15 22 6 5 -8 33 -11 85 -10z m453 -617 c0 -5 -9 -10 -21
-10 -11 0 -17 5 -14 10 3 6 13 10 21 10 8 0 14 -4 14 -10z m-2440 -475 c0 -9
-6 -12 -15 -9 -8 4 -15 10 -15 15 0 5 7 9 15 9 8 0 15 -7 15 -15z m1250 -164
c0 -23 -16 -36 -25 -21 -9 14 1 40 15 40 5 0 10 -9 10 -19z m2496 -622 c50
-13 51 -15 30 -129 -13 -77 14 -65 -306 -135 -301 -66 -289 -61 -312 -119 -10
-27 -17 -51 -14 -53 3 -3 50 5 105 16 86 19 107 20 141 10 47 -14 50 -30 20
-90 -12 -22 -18 -48 -15 -58 3 -10 -3 -29 -14 -42 -20 -25 -31 -29 -264 -76
l-88 -18 -76 -225 c-65 -191 -82 -232 -115 -269 -58 -67 -102 -138 -137 -226
-43 -105 -46 -107 -105 -96 -64 12 -74 23 -58 64 7 17 65 187 128 377 63 190
122 349 130 353 12 7 9 18 -17 67 -36 68 -32 87 29 114 35 16 43 26 65 85 13
36 43 116 66 177 l42 110 137 27 c75 15 207 41 292 58 87 17 162 37 172 45 17
16 83 43 106 44 7 0 33 -5 58 -11z m1536 -373 c53 -1 102 -6 107 -11 7 -7 1
-35 -21 -87 l-32 -77 -44 -3 c-27 -2 -48 -9 -53 -18 -4 -8 -15 -73 -24 -145
-9 -71 -18 -141 -21 -155 -4 -23 0 -27 41 -38 42 -11 45 -14 45 -45 0 -21 7
-36 20 -45 25 -15 26 -58 2 -71 -36 -19 -396 -83 -444 -79 -27 3 -50 7 -53 10
-2 2 -7 35 -11 74 -8 96 0 106 104 113 44 4 83 8 85 11 6 6 33 206 43 311 l6
77 -33 7 c-19 4 -44 14 -57 22 -13 8 -32 11 -43 8 -20 -7 -120 11 -151 27 -10
5 -18 13 -18 18 0 10 71 34 170 56 41 9 98 24 125 35 38 14 63 17 105 12 30
-3 99 -7 152 -7z m668 -17 c19 -6 44 -17 55 -25 20 -15 20 -16 -9 -67 -60
-106 -106 -202 -106 -220 0 -9 18 -37 40 -61 45 -48 60 -88 60 -153 0 -35 -3
-43 -18 -43 -25 0 -125 30 -136 41 -19 17 -34 9 -41 -22 -5 -23 -23 -41 -75
-75 -40 -27 -87 -70 -114 -105 -48 -62 -59 -66 -125 -53 -22 5 -31 12 -31 27
0 11 28 72 61 136 34 64 84 158 111 209 l49 92 -31 53 c-17 28 -51 81 -76 116
-25 36 -44 71 -42 79 2 8 15 24 30 35 26 20 32 20 95 7 75 -14 103 -28 103
-48 0 -7 5 -23 11 -34 11 -20 11 -19 28 8 10 16 21 44 24 63 13 65 32 70 137
40z m-6117 -31 c24 -9 27 -15 27 -57 0 -45 -23 -189 -76 -486 -39 -220 -38
-208 -15 -229 27 -24 27 -70 2 -116 -11 -19 -25 -46 -31 -59 -12 -27 -63 -258
-80 -365 -6 -38 -16 -91 -21 -119 l-11 -49 -46 7 c-85 13 -125 41 -148 107
-11 33 -12 53 -4 93 19 94 50 287 50 312 0 22 -3 24 -42 21 l-43 -3 -17 -80
c-10 -44 -22 -100 -27 -125 -48 -227 -51 -237 -90 -268 -27 -22 -41 -44 -54
-88 -23 -76 -49 -137 -62 -146 -5 -4 -20 -5 -32 -3 -75 16 -73 14 -73 48 0 51
78 579 121 822 6 33 13 78 15 100 2 22 10 92 18 155 8 63 17 159 21 214 9 145
7 141 138 195 32 13 111 -2 136 -25 20 -18 6 -157 -50 -504 -6 -36 -13 -73
-16 -84 -5 -16 -1 -17 38 -11 70 11 79 15 85 43 3 15 9 45 14 67 9 39 16 74
61 323 15 83 30 135 44 157 13 18 28 50 35 71 7 22 19 53 27 71 13 29 18 32
46 27 18 -3 44 -10 60 -16z m4265 -145 c79 -5 112 -17 112 -41 0 -10 -7 -42
-15 -72 -8 -30 -35 -136 -60 -235 -26 -99 -48 -188 -51 -197 -5 -16 6 -17 113
-17 112 1 166 -9 184 -34 4 -5 43 -4 91 2 122 16 244 -9 188 -39 -61 -32 -287
-72 -395 -68 -44 1 -143 -1 -220 -5 -212 -12 -221 -6 -189 129 13 58 21 74 35
74 19 0 28 23 53 140 32 152 47 255 45 305 -3 59 6 79 30 70 9 -4 44 -9 79
-12z m-1646 -256 l27 -12 -23 -53 c-12 -29 -26 -56 -32 -61 -5 -4 -45 -14 -89
-21 -89 -14 -149 -35 -141 -48 3 -5 33 -15 66 -21 70 -14 75 -29 37 -95 -18
-31 -34 -43 -82 -62 -56 -21 -58 -23 -26 -23 18 -1 52 -6 73 -13 39 -11 40
-13 34 -49 -10 -60 -43 -128 -68 -138 -13 -5 -52 -22 -88 -39 -36 -16 -123
-55 -195 -86 -71 -31 -142 -64 -157 -72 -31 -17 -85 -18 -125 -3 -37 13 -113
88 -113 110 0 29 128 289 142 289 7 0 14 12 14 28 1 15 34 93 73 174 80 166
51 145 236 169 342 42 393 46 437 26z m-1006 -208 c40 -10 44 -14 44 -43 0
-17 -5 -47 -10 -67 -12 -41 -35 -58 -293 -211 -83 -49 -156 -98 -162 -107 -5
-9 -22 -54 -36 -101 -45 -146 -67 -192 -113 -239 -25 -27 -51 -67 -61 -96 -25
-68 -34 -74 -95 -61 -39 8 -50 14 -50 29 0 17 31 114 132 407 18 53 18 56 1
89 -14 27 -15 35 -5 38 35 13 64 57 102 154 32 84 46 108 63 112 12 2 85 19
162 36 77 17 167 40 200 50 73 24 66 24 121 10z m-1111 -209 c27 -7 55 -6 86
1 50 13 147 5 173 -14 15 -11 6 -30 -80 -177 -102 -174 -193 -334 -234 -413
-14 -26 -51 -71 -84 -99 -32 -28 -78 -82 -101 -119 -24 -37 -48 -70 -54 -73
-13 -8 -90 9 -105 24 -13 13 2 43 170 340 173 307 160 275 129 308 -25 26 -45
78 -45 115 0 28 27 73 57 96 32 24 34 24 88 11z"/>
<path d="M2903 6948 c-25 -12 -31 -28 -11 -28 6 0 22 -10 35 -22 13 -12 26
-19 29 -15 6 5 -23 78 -29 76 -1 0 -12 -5 -24 -11z"/>
<path d="M4740 4770 c0 -5 7 -7 15 -4 8 4 15 8 15 10 0 2 -7 4 -15 4 -8 0 -15
-4 -15 -10z"/>
<path d="M4641 4740 c-30 -11 -60 -25 -65 -31 -8 -9 -6 -10 9 -4 11 4 31 11
45 15 69 24 103 39 85 39 -11 0 -44 -9 -74 -19z"/>
</g>
</svg>
